<?xml version="1.0" encoding="utf-8"?>
<!-- Svg Vector Icons : http://www.onlinewebfonts.com/icon -->
<!DOCTYPE svg PUBLIC "-//W3C//DTD SVG 1.1//EN" "http://www.w3.org/Graphics/SVG/1.1/DTD/svg11.dtd">
<svg version="1.1" xmlns="http://www.w3.org/2000/svg" xmlns:xlink="http://www.w3.org/1999/xlink" x="0px" y="0px" viewBox="0 0 256 256" enable-background="new 0 0 256 256" xml:space="preserve">
<metadata> Svg Vector Icons : http://www.onlinewebfonts.com/icon </metadata>
<g><g><path fill="#000000" d="M17.4,51.4h22.9L50.9,239c0.2,3.9,3.4,7,7.4,7h139.6c3.9,0,7.2-3.1,7.4-7l10.5-187.6h22.9c4.1,0,7.4-3.3,7.4-7.4c0-4.1-3.3-7.4-7.4-7.4H211c-0.4,0-0.8,0.2-1.2,0.2c-0.4,0-0.7-0.2-1.1-0.2h-38.7V17.4c0-4.1-3.3-7.4-7.4-7.4H93.3c-4.1,0-7.4,3.3-7.4,7.4v19.3H47.2c-0.3,0-0.6,0.1-1,0.2c-0.3,0-0.6-0.2-1-0.2H17.4C13.3,36.7,10,40,10,44C10,48.1,13.3,51.4,17.4,51.4z M100.7,24.8h54.6v11.9h-54.6V24.8z M201,51.4l-10,179.8H65.2L55,51.4H201z"/><path fill="#000000" d="M91.5,217.4c0.1,0,0.3,0,0.4,0c4.1-0.2,7.2-3.7,6.9-7.8L91.1,72.9c-0.2-4.1-3.8-7.1-7.8-6.9c-4.1,0.2-7.2,3.7-6.9,7.8l7.8,136.7C84.3,214.4,87.6,217.4,91.5,217.4z"/><path fill="#000000" d="M163.8,217.4c0.1,0,0.3,0,0.4,0c3.9,0,7.1-3,7.3-7l7.8-136.7c0.2-4.1-2.9-7.6-6.9-7.8c-4-0.2-7.5,2.9-7.8,6.9l-7.8,136.7C156.7,213.7,159.8,217.2,163.8,217.4z"/><path fill="#000000" d="M128,217.4c4.1,0,7.4-3.3,7.4-7.4V73.4c0-4.1-3.3-7.4-7.4-7.4c-4.1,0-7.4,3.3-7.4,7.4v136.7C120.6,214.1,123.9,217.4,128,217.4z"/></g></g>
</svg>
